PathFileType	4	(x/y/z)	S09_P20_T03
DataRate	CameraRate	NumFrames	NumMarkers	Units	OrigDataRate	OrigDataStartFrame	OrigNumFrames
240	240	6	51	mm	240	358	409
Frame#	Time	Sternum			R.Acromium			L.Acromium			Top.Head			R.ASIS			L.ASIS			R.PSIS			L.PSIS			R.Great.Tro			L.Great.Tro			R.Iliac.Crest			L.Iliac.Crest			V.Sacral			R.Thigh.Upper.Post			R.Thigh.Lower.Ant			R.Thigh.Lower.Post			R.Thigh.Upper.Ant			R.Knee.Lat			R.Knee.Med			R.Shank.Upper.Post			R.Shank.Lower.Ant			R.Shank.Lower.Post			R.Shank.Upper.Ant			R.Ankle.Lat			R.Ankle.Med			R.Heel.Upper			R.Heel.Med			R.Heel.Lat			R.Toe.Lat			R.Toe.Med			R.Toe.Tip			L.Thigh.Upper.Post			L.Thigh.Lower.Ant			L.Thigh.Lower.Post			L.Thigh.Upper.Ant			L.Knee.Lat			L.Knee.Med			L.Shank.Upper.Post			L.Shank.Lower.Ant			L.Shank.Lower.Post			L.Shank.Upper.Ant			L.Ankle.Lat			L.Ankle.Med			L.Heel.Upper			L.Heel.Med			L.Heel.Lat			L.Toe.Lat			L.Toe.Med			L.Toe.Tip			Cervical.Spine			Back			
		X1	Y1	Z1	X2	Y2	Z2	X3	Y3	Z3	X4	Y4	Z4	X5	Y5	Z5	X6	Y6	Z6	X7	Y7	Z7	X8	Y8	Z8	X9	Y9	Z9	X10	Y10	Z10	X11	Y11	Z11	X12	Y12	Z12	X13	Y13	Z13	X14	Y14	Z14	X15	Y15	Z15	X16	Y16	Z16	X17	Y17	Z17	X18	Y18	Z18	X19	Y19	Z19	X20	Y20	Z20	X21	Y21	Z21	X22	Y22	Z22	X23	Y23	Z23	X24	Y24	Z24	X25	Y25	Z25	X26	Y26	Z26	X27	Y27	Z27	X28	Y28	Z28	X29	Y29	Z29	X30	Y30	Z30	X31	Y31	Z31	X32	Y32	Z32	X33	Y33	Z33	X34	Y34	Z34	X35	Y35	Z35	X36	Y36	Z36	X37	Y37	Z37	X38	Y38	Z38	X39	Y39	Z39	X40	Y40	Z40	X41	Y41	Z41	X42	Y42	Z42	X43	Y43	Z43	X44	Y44	Z44	X45	Y45	Z45	X46	Y46	Z46	X47	Y47	Z47	X48	Y48	Z48	X49	Y49	Z49	X50	Y50	Z50	X51	Y51	Z51	

358	1.4875	584.3	1154.8	296.68	449.64	1422.1	447.71	469.43	1429.6	136.99	475.14	1730.8	300.59	517.67	1007.1	395.16	505.13	1012.2	148.71	295.36	1029	331.16	298.87	1039.6	242.71	442.25	917.12	468.92	419.68	927.9	83.755	430.1	1080.5	445.47	405.97	1109.1	121.11	278.97	999.31	282.72	511.57	679.35	453.71	611.33	604.85	417.87	533.58	590.69	426.75	582.95	687.82	444.44	615.95	532.12	408.94	612.02	517.18	282.34	621.2	348.43	419.64	709.46	323.69	414.91	653.56	278.47	411.11	673.02	388.15	423.01	773.16	118.45	401.55	797.52	153.98	323.46	732.6	67.499	343.47	761.65	49.285	315.06	749.73	40.576	378.04	888.55	109.45	446.16	930.1	149.81	349.41	956.67	185.48	397.84	308.76	693.27	146.76	366.51	580.96	142.09	304.03	603.61	163.62	371.53	667.77	119.73	332.69	502.41	156.73	363.04	513.79	285.45	249.88	383.47	152.94	289.51	281.26	167.9	231.25	309.52	164.13	307.73	356.68	158.15	200.54	111.71	197.45	218.42	106	288.55	122.84	78.038	252.3	135.08	52.737	284.55	121.08	50.415	224.1	291.78	41.457	161.82	334.01	39.168	269	384.28	50.168	207.62	380.45	1475.6	298.42	319.57	1215.5	272.92
359	1.4917	589.79	1153.7	296.96	455.07	1421.2	448.1	474.66	1428.5	137.26	480.37	1730	300.84	523.57	1006.1	395.47	510.53	1011.2	148.95	301.11	1028	331.79	304.51	1038.6	243.33	448.22	916.27	469.28	424.76	927.01	84.008	435.95	1079.5	445.97	411.38	1108.2	121.59	284.65	998.32	283.38	517.67	678.63	453.57	617.53	604.29	417.64	539.79	590.05	426.46	589.07	687.18	444.42	622.16	531.49	408.47	618.33	516.78	282.12	626.84	347.68	419.05	714.93	322.56	413.97	658.84	277.61	410.37	678.84	387.15	422.25	777.79	117.31	400.37	801.87	152.7	322.17	736.86	66.732	342.51	765.74	48.437	314.01	754.07	39.788	377.04	893.3	108.14	444.57	934.52	148.4	347.62	961.31	184.04	395.95	313.5	692.64	147.19	370.93	580.17	142.41	308.55	602.99	164.04	376.15	666.98	120.04	336.91	501.73	157.15	367.61	512.95	285.77	253.19	383.54	153.25	291.89	280.96	168.18	233.89	309.75	164.44	310.82	356.21	158.47	201.1	112.31	197.63	218.95	106.4	288.71	123.12	78.7	252.42	135.26	53.345	284.66	121.24	51.097	224.21	291.89	41.461	161.87	334.17	39.054	268.96	384.51	49.808	207.58	385.84	1474.6	298.77	325	1214.4	273.42
360	1.4958	595.29	1152.5	297.26	460.51	1420.4	448.5	479.89	1427.4	137.55	485.6	1729.2	301.08	529.49	1005.2	395.8	515.98	1010.2	149.21	306.89	1027.1	332.39	310.17	1037.6	243.94	454.23	915.5	469.65	429.89	926.1	84.278	441.8	1078.6	446.47	416.84	1107.3	122.07	290.35	997.35	284.03	523.88	677.97	453.42	623.87	603.83	417.39	546.14	589.47	426.17	595.3	686.63	444.38	628.46	530.9	407.98	624.85	516.47	281.94	632.32	346.93	418.41	720.21	321.33	413.01	663.86	276.71	409.59	684.55	386.09	421.46	781.94	116.03	399.18	805.8	151.21	320.87	740.57	65.969	341.55	769.23	47.525	312.96	757.78	38.983	376.05	897.53	106.5	442.99	938.5	146.56	345.86	965.55	182.12	394.07	318.35	691.98	147.64	375.48	579.35	142.79	313.19	602.33	164.5	380.88	666.17	120.39	341.25	501.04	157.6	372.28	512.11	286.15	256.61	383.63	153.59	294.34	280.67	168.49	236.61	310.01	164.78	314	355.74	158.81	201.7	112.97	197.82	219.52	106.85	288.88	123.44	79.459	252.54	135.46	54.049	284.78	121.42	51.875	224.32	292.02	41.471	161.93	334.34	38.948	268.91	384.76	49.442	207.55	391.25	1473.7	299.13	330.44	1213.4	273.93
361	1.5	600.82	1151.5	297.59	465.97	1419.5	448.92	485.13	1426.3	137.86	490.82	1728.4	301.32	535.42	1004.4	396.14	521.46	1009.2	149.49	312.68	1026.1	332.97	315.86	1036.6	244.52	460.28	914.8	470.03	435.05	925.19	84.568	447.65	1077.8	446.96	422.34	1106.4	122.53	296.09	996.4	284.66	530.19	677.37	453.25	630.32	603.46	417.1	552.61	588.95	425.85	601.62	686.16	444.31	634.86	530.33	407.48	631.53	516.26	281.77	637.66	346.19	417.71	725.31	320	412.05	668.65	275.79	408.78	690.17	384.97	420.65	785.64	114.65	397.99	809.35	149.53	319.57	743.78	65.233	340.6	772.18	46.573	311.94	760.91	38.188	375.09	901.28	104.58	441.44	942.11	144.33	344.13	969.45	179.78	392.22	323.29	691.29	148.1	380.15	578.52	143.2	317.95	601.64	164.98	385.72	665.34	120.77	345.72	500.32	158.1	377.04	511.27	286.58	260.14	383.74	153.96	296.87	280.4	168.82	239.43	310.29	165.16	317.27	355.27	159.2	202.34	113.7	198.01	220.14	107.35	289.05	123.8	80.323	252.66	135.69	54.857	284.9	121.62	52.757	224.45	292.15	41.487	161.99	334.53	38.852	268.86	385.01	49.07	207.51	396.66	1472.8	299.51	335.91	1212.3	274.44
362	1.5042	606.36	1150.5	297.96	471.45	1418.8	449.34	490.38	1425.3	138.18	496.02	1727.6	301.56	541.39	1003.6	396.48	526.99	1008.2	149.78	318.5	1025.2	333.54	321.57	1035.7	245.08	466.37	914.18	470.42	440.26	924.27	84.876	453.51	1077	447.44	427.88	1105.6	122.98	301.86	995.47	285.28	536.59	676.81	453.08	636.86	603.15	416.78	559.18	588.48	425.53	608.01	685.75	444.22	641.31	529.78	406.95	638.35	516.14	281.63	642.87	345.46	416.96	730.26	318.59	411.07	673.24	274.85	407.94	695.69	383.81	419.82	788.97	113.18	396.82	812.58	147.68	318.29	746.55	64.548	339.67	774.64	45.605	310.96	763.54	37.432	374.17	904.61	102.42	439.92	945.38	141.74	342.44	973.05	177.05	390.41	328.33	690.55	148.58	384.97	577.67	143.67	322.83	600.91	165.51	390.67	664.48	121.19	350.32	499.6	158.63	381.91	510.44	287.06	263.77	383.86	154.37	299.47	280.15	169.18	242.34	310.6	165.56	320.64	354.82	159.61	203.03	114.51	198.22	220.81	107.92	289.24	124.2	81.301	252.8	135.94	55.778	285.03	121.84	53.753	224.58	292.3	41.51	162.06	334.72	38.766	268.82	385.29	48.694	207.47	402.08	1471.9	299.9	341.39	1211.3	274.95
363	1.5083	611.93	1149.6	298.35	476.94	1418	449.78	495.63	1424.4	138.52	501.22	1726.8	301.81	547.38	1002.9	396.84	532.55	1007.2	150.08	324.34	1024.4	334.09	327.31	1034.7	245.62	472.51	913.62	470.82	445.51	923.35	85.202	459.38	1076.3	447.9	433.46	1104.7	123.42	307.67	994.58	285.89	543.06	676.29	452.9	643.49	602.91	416.43	565.84	588.06	425.19	614.48	685.39	444.1	647.82	529.26	406.41	645.27	516.08	281.5	647.96	344.74	416.17	735.06	317.13	410.11	677.64	273.9	407.08	701.12	382.62	418.99	791.97	111.65	395.68	815.53	145.7	317.02	748.94	63.939	338.79	776.68	44.649	310.03	765.72	36.739	373.3	907.56	100.05	438.45	948.36	138.84	340.8	976.39	173.99	388.65	333.47	689.79	149.1	389.91	576.81	144.17	327.84	600.15	166.07	395.74	663.61	121.65	355.04	498.86	159.2	386.88	509.61	287.59	267.52	384.02	154.81	302.17	279.93	169.56	245.35	310.95	166	324.11	354.38	160.04	203.78	115.39	198.43	221.55	108.55	289.44	124.65	82.403	252.94	136.23	56.821	285.17	122.1	54.872	224.72	292.45	41.544	162.12	334.93	38.692	268.77	385.57	48.314	207.42	407.5	1471.1	300.3	346.9	1210.3	275.47
